<svg width="264" height="47" viewBox="0 0 264 47" fill="none" xmlns="http://www.w3.org/2000/svg">
<rect y="2.604" width="60.4279" height="40.9349" rx="4.87321" fill="#307C31"/>
<path d="M20.4648 12.3497C20.4648 10.1966 22.2103 8.45117 24.3634 8.45117H36.0591C38.2123 8.45117 39.9577 10.1966 39.9577 12.3497H20.4648Z" fill="white"/>
<rect x="25.3359" y="18.1963" width="14.6197" height="0.974641" rx="0.487321" fill="white"/>
<rect x="25.3359" y="22.0947" width="7.79715" height="0.974641" rx="0.487321" fill="white"/>
<rect x="25.3359" y="24.0444" width="5.84786" height="0.974641" rx="0.487321" fill="white"/>
<rect x="25.3359" y="25.9937" width="3.89857" height="0.974641" rx="0.487321" fill="white"/>
<rect x="25.3359" y="27.9429" width="1.94929" height="0.974641" rx="0.487321" fill="white"/>
<rect x="25.3359" y="20.146" width="11.6957" height="0.974641" rx="0.487321" fill="white"/>
<path d="M20.6061 36.7153C19.9909 36.7153 19.4922 36.2166 19.4922 35.6015L19.4922 15.2732C19.4922 14.1967 20.3649 13.3239 21.4415 13.3239C22.518 13.3239 23.3908 14.1967 23.3908 15.2732L23.3908 33.9306C23.3908 35.4686 22.144 36.7153 20.6061 36.7153Z" fill="white"/>
<path d="M79.5183 22.5046H92.5058V26.5981H79.5183V22.5046ZM79.9276 36.5713H75.0899V10.5218H94.106V14.5781H79.9276V36.5713ZM109.927 36.5713V32.5522L109.667 31.6963V24.6629C109.667 23.2984 109.257 22.2441 108.438 21.4998C107.62 20.7307 106.379 20.3462 104.717 20.3462C103.601 20.3462 102.497 20.5198 101.405 20.8672C100.338 21.2145 99.4328 21.6983 98.6885 22.3185L96.865 18.9321C97.9318 18.1134 99.1971 17.5055 100.661 17.1086C102.149 16.6868 103.688 16.476 105.275 16.476C108.153 16.476 110.374 17.1706 111.937 18.5599C113.524 19.9244 114.318 22.0456 114.318 24.9234V36.5713H109.927ZM103.675 36.8318C102.187 36.8318 100.884 36.5837 99.7677 36.0875C98.6513 35.5665 97.783 34.8595 97.1628 33.9663C96.5673 33.0484 96.2696 32.0188 96.2696 30.8776C96.2696 29.7612 96.5301 28.7564 97.0511 27.8633C97.5969 26.9702 98.4776 26.2631 99.6933 25.7421C100.909 25.2211 102.522 24.9607 104.531 24.9607H110.299V28.0494H104.866C103.278 28.0494 102.211 28.3099 101.666 28.8309C101.12 29.327 100.847 29.9473 100.847 30.6915C100.847 31.5351 101.182 32.2049 101.852 32.7011C102.522 33.1973 103.452 33.4453 104.643 33.4453C105.784 33.4453 106.801 33.1849 107.694 32.6639C108.612 32.1429 109.27 31.3738 109.667 30.3566L110.448 33.1476C110.001 34.3137 109.195 35.2192 108.029 35.8642C106.888 36.5093 105.437 36.8318 103.675 36.8318ZM120.288 36.5713V16.6992H124.717V22.1696L124.196 20.5695C124.791 19.2298 125.721 18.2126 126.987 17.5179C128.277 16.8233 129.877 16.476 131.787 16.476V20.9044C131.589 20.8548 131.403 20.8299 131.229 20.8299C131.055 20.8051 130.882 20.7927 130.708 20.7927C128.946 20.7927 127.545 21.3137 126.503 22.3557C125.461 23.3729 124.94 24.8986 124.94 26.933V36.5713H120.288ZM160.815 16.476C162.403 16.476 163.805 16.7861 165.02 17.4063C166.261 18.0265 167.228 18.9817 167.923 20.2717C168.618 21.537 168.965 23.1744 168.965 25.1839V36.5713H164.313V25.7794C164.313 24.0179 163.929 22.703 163.16 21.8347C162.39 20.9664 161.286 20.5322 159.848 20.5322C158.83 20.5322 157.925 20.7555 157.131 21.2021C156.362 21.6486 155.754 22.3061 155.308 23.1744C154.886 24.0427 154.675 25.1467 154.675 26.4864V36.5713H150.023V25.7794C150.023 24.0179 149.639 22.703 148.87 21.8347C148.1 20.9664 146.996 20.5322 145.558 20.5322C144.54 20.5322 143.635 20.7555 142.841 21.2021C142.072 21.6486 141.464 22.3061 141.017 23.1744C140.596 24.0427 140.385 25.1467 140.385 26.4864V36.5713H135.733V16.6992H140.162V21.9836L139.38 20.4206C140.05 19.1305 141.017 18.1506 142.283 17.4807C143.573 16.8109 145.037 16.476 146.674 16.476C148.535 16.476 150.147 16.9349 151.512 17.8529C152.901 18.7708 153.819 20.1601 154.266 22.0208L152.442 21.3882C153.087 19.8996 154.154 18.7088 155.642 17.8156C157.131 16.9225 158.855 16.476 160.815 16.476ZM179.784 22.5046H192.772V26.5981H179.784V22.5046ZM180.194 36.5713H175.356V10.5218H194.372V14.5781H180.194V36.5713ZM206.469 36.8318C204.782 36.8318 203.293 36.5217 202.003 35.9014C200.713 35.2564 199.708 34.2889 198.989 32.9988C198.27 31.6839 197.91 30.0341 197.91 28.0494V16.6992H202.561V27.4167C202.561 29.203 202.958 30.5427 203.752 31.4358C204.571 32.3041 205.725 32.7383 207.213 32.7383C208.305 32.7383 209.248 32.515 210.041 32.0684C210.86 31.6219 211.493 30.952 211.939 30.0589C212.411 29.1658 212.646 28.0618 212.646 26.7469V16.6992H217.298V36.5713H212.87V31.2125L213.651 32.8499C212.981 34.14 212.001 35.1324 210.711 35.827C209.421 36.4969 208.007 36.8318 206.469 36.8318ZM229.529 36.8318C227.867 36.8318 226.266 36.6209 224.728 36.1992C223.215 35.7526 222.012 35.2192 221.119 34.599L222.905 31.0637C223.798 31.6343 224.865 32.1057 226.105 32.4778C227.346 32.8499 228.586 33.036 229.827 33.036C231.29 33.036 232.345 32.8375 232.99 32.4406C233.66 32.0436 233.994 31.5102 233.994 30.8404C233.994 30.2946 233.771 29.8852 233.325 29.6124C232.878 29.3146 232.295 29.0914 231.576 28.9425C230.856 28.7937 230.05 28.6572 229.157 28.5332C228.288 28.4091 227.408 28.2479 226.515 28.0494C225.646 27.8261 224.852 27.516 224.133 27.119C223.413 26.6973 222.83 26.1391 222.384 25.4444C221.937 24.7498 221.714 23.8318 221.714 22.6906C221.714 21.4254 222.074 20.3338 222.793 19.4158C223.513 18.4731 224.517 17.7536 225.807 17.2574C227.122 16.7365 228.673 16.476 230.459 16.476C231.799 16.476 233.151 16.6248 234.515 16.9225C235.88 17.2202 237.009 17.642 237.902 18.1878L236.116 21.7231C235.173 21.1525 234.218 20.7679 233.25 20.5695C232.307 20.3462 231.365 20.2345 230.422 20.2345C229.008 20.2345 227.953 20.4454 227.259 20.8672C226.589 21.2889 226.254 21.8223 226.254 22.4673C226.254 23.0628 226.477 23.5093 226.924 23.807C227.37 24.1047 227.953 24.3404 228.673 24.5141C229.392 24.6878 230.186 24.8366 231.055 24.9607C231.948 25.0599 232.828 25.2211 233.697 25.4444C234.565 25.6677 235.359 25.9778 236.078 26.3748C236.823 26.7469 237.418 27.2803 237.865 27.975C238.311 28.6696 238.535 29.5751 238.535 30.6915C238.535 31.932 238.162 33.0112 237.418 33.9291C236.699 34.8471 235.669 35.5665 234.329 36.0875C232.99 36.5837 231.389 36.8318 229.529 36.8318ZM251.881 36.8318C249.673 36.8318 247.738 36.3976 246.076 35.5293C244.438 34.6362 243.161 33.4205 242.243 31.8824C241.35 30.3442 240.903 28.5952 240.903 26.6353C240.903 24.6505 241.337 22.9015 242.206 21.3882C243.099 19.85 244.314 18.6468 245.852 17.7784C247.415 16.9101 249.189 16.476 251.174 16.476C253.109 16.476 254.833 16.8977 256.347 17.7412C257.86 18.5847 259.051 19.7756 259.919 21.3137C260.788 22.8519 261.222 24.6629 261.222 26.7469C261.222 26.9454 261.209 27.1687 261.184 27.4167C261.184 27.6648 261.172 27.9005 261.147 28.1238H244.587V25.0351H258.691L256.868 26.0026C256.893 24.8614 256.657 23.8567 256.161 22.9883C255.664 22.12 254.982 21.4378 254.114 20.9416C253.27 20.4454 252.29 20.1973 251.174 20.1973C250.033 20.1973 249.028 20.4454 248.16 20.9416C247.316 21.4378 246.646 22.1324 246.15 23.0255C245.679 23.8939 245.443 24.9234 245.443 26.1143V26.8585C245.443 28.0494 245.716 29.1038 246.262 30.0217C246.808 30.9396 247.577 31.6467 248.569 32.1429C249.561 32.6391 250.703 32.8871 251.993 32.8871C253.109 32.8871 254.114 32.7135 255.007 32.3662C255.9 32.0188 256.694 31.473 257.389 30.7288L259.882 33.5942C258.989 34.6362 257.86 35.4425 256.496 36.0131C255.156 36.5589 253.618 36.8318 251.881 36.8318Z" fill="#282828"/>
</svg>
