<svg width="172" height="31" viewBox="0 0 172 31" fill="none" xmlns="http://www.w3.org/2000/svg">
<rect width="39.3251" height="26.6395" rx="3.17138" fill="#307C31"/>
<path d="M13.3184 6.34234C13.3184 4.94113 14.4543 3.80524 15.8555 3.80524H23.4668C24.868 3.80524 26.0039 4.94113 26.0039 6.34234H13.3184Z" fill="white"/>
<rect x="16.4883" y="10.1474" width="9.51414" height="0.634275" rx="0.317137" fill="white"/>
<rect x="16.4883" y="12.6845" width="5.07421" height="0.634275" rx="0.317137" fill="white"/>
<rect x="16.4883" y="13.9533" width="3.80566" height="0.634275" rx="0.317137" fill="white"/>
<rect x="16.4883" y="15.2216" width="2.53711" height="0.634275" rx="0.317137" fill="white"/>
<rect x="16.4883" y="16.4904" width="1.26855" height="0.634275" rx="0.317137" fill="white"/>
<rect x="16.4883" y="11.4162" width="7.61132" height="0.634275" rx="0.317137" fill="white"/>
<path d="M13.4104 22.1992C13.0101 22.1992 12.6855 21.8746 12.6855 21.4743L12.6855 8.24511C12.6855 7.54451 13.2535 6.97656 13.9541 6.97656C14.6547 6.97656 15.2227 7.54451 15.2227 8.24511L15.2227 20.3869C15.2227 21.3878 14.4113 22.1992 13.4104 22.1992Z" fill="white"/>
<path d="M51.7482 13.1654H60.2002V15.8294H51.7482V13.1654ZM52.0146 22.3198H48.8663V5.36733H61.2416V8.00706H52.0146V22.3198ZM71.5375 22.3198V19.7042L71.368 19.1472V14.5701C71.368 13.6821 71.1016 12.9959 70.5688 12.5116C70.036 12.0111 69.2288 11.7608 68.1471 11.7608C67.4205 11.7608 66.7021 11.8738 65.9917 12.0999C65.2974 12.3259 64.7081 12.6407 64.2238 13.0444L63.0371 10.8405C63.7314 10.3078 64.5548 9.91219 65.5073 9.65387C66.476 9.3794 67.477 9.24217 68.5103 9.24217C70.3832 9.24217 71.8282 9.69423 72.8453 10.5984C73.8786 11.4863 74.3952 12.8668 74.3952 14.7396V22.3198H71.5375ZM67.469 22.4893C66.5003 22.4893 65.6526 22.3278 64.9261 22.0049C64.1996 21.6659 63.6345 21.2057 63.2309 20.6245C62.8434 20.0271 62.6496 19.3571 62.6496 18.6144C62.6496 17.8879 62.8192 17.234 63.1582 16.6528C63.5134 16.0716 64.0865 15.6114 64.8777 15.2724C65.6688 14.9333 66.7182 14.7638 68.026 14.7638H71.7797V16.7739H68.2439C67.2106 16.7739 66.5164 16.9434 66.1612 17.2825C65.806 17.6054 65.6284 18.009 65.6284 18.4934C65.6284 19.0423 65.8464 19.4782 66.2823 19.8011C66.7182 20.124 67.3237 20.2855 68.0986 20.2855C68.8413 20.2855 69.5033 20.1159 70.0845 19.7769C70.6819 19.4378 71.1097 18.9373 71.368 18.2754L71.8766 20.0917C71.586 20.8506 71.0613 21.4399 70.3024 21.8596C69.5598 22.2794 68.6153 22.4893 67.469 22.4893ZM78.2803 22.3198V9.38748H81.1622V12.9475L80.8232 11.9061C81.2107 11.0343 81.8161 10.3723 82.6395 9.92027C83.4791 9.4682 84.5204 9.24217 85.7636 9.24217V12.1241C85.6344 12.0918 85.5133 12.0756 85.4003 12.0756C85.2873 12.0595 85.1743 12.0514 85.0613 12.0514C83.915 12.0514 83.0028 12.3905 82.3247 13.0686C81.6466 13.7305 81.3075 14.7235 81.3075 16.0474V22.3198H78.2803ZM104.654 9.24217C105.688 9.24217 106.6 9.44398 107.391 9.84761C108.198 10.2512 108.828 10.8728 109.28 11.7124C109.732 12.5358 109.958 13.6014 109.958 14.9091V22.3198H106.931V15.2966C106.931 14.1503 106.681 13.2946 106.18 12.7295C105.68 12.1644 104.961 11.8819 104.025 11.8819C103.363 11.8819 102.773 12.0272 102.257 12.3178C101.756 12.6084 101.361 13.0363 101.07 13.6014C100.796 14.1664 100.658 14.8849 100.658 15.7567V22.3198H97.6312V15.2966C97.6312 14.1503 97.381 13.2946 96.8805 12.7295C96.38 12.1644 95.6615 11.8819 94.7251 11.8819C94.0632 11.8819 93.4739 12.0272 92.9572 12.3178C92.4567 12.6084 92.0612 13.0363 91.7705 13.6014C91.4961 14.1664 91.3588 14.8849 91.3588 15.7567V22.3198H88.3316V9.38748H91.2135V12.8264L90.705 11.8093C91.1409 10.9697 91.7705 10.332 92.5939 9.89605C93.4335 9.46013 94.3861 9.24217 95.4516 9.24217C96.6625 9.24217 97.712 9.54085 98.6 10.1382C99.5041 10.7356 100.101 11.6397 100.392 12.8506L99.2054 12.4389C99.6252 11.4702 100.319 10.6952 101.288 10.114C102.257 9.53278 103.379 9.24217 104.654 9.24217ZM116.999 13.1654H125.451V15.8294H116.999V13.1654ZM117.265 22.3198H114.117V5.36733H126.492V8.00706H117.265V22.3198ZM134.365 22.4893C133.267 22.4893 132.298 22.2875 131.459 21.8838C130.619 21.4641 129.965 20.8344 129.497 19.9949C129.029 19.1392 128.795 18.0655 128.795 16.7739V9.38748H131.822V16.3622C131.822 17.5246 132.08 18.3965 132.597 18.9777C133.13 19.5428 133.881 19.8253 134.849 19.8253C135.56 19.8253 136.173 19.68 136.69 19.3894C137.223 19.0988 137.634 18.6629 137.925 18.0817C138.232 17.5004 138.385 16.782 138.385 15.9263V9.38748H141.412V22.3198H138.53V18.8324L139.039 19.898C138.603 20.7375 137.965 21.3833 137.126 21.8354C136.286 22.2713 135.366 22.4893 134.365 22.4893ZM149.372 22.4893C148.29 22.4893 147.249 22.3521 146.248 22.0776C145.263 21.787 144.48 21.4399 143.899 21.0362L145.061 18.7355C145.642 19.1069 146.336 19.4136 147.144 19.6558C147.951 19.898 148.758 20.0191 149.565 20.0191C150.518 20.0191 151.204 19.8899 151.624 19.6316C152.06 19.3733 152.278 19.0261 152.278 18.5902C152.278 18.235 152.133 17.9686 151.842 17.791C151.551 17.5973 151.172 17.452 150.704 17.3551C150.236 17.2582 149.711 17.1695 149.13 17.0887C148.564 17.008 147.991 16.9031 147.41 16.7739C146.845 16.6286 146.328 16.4268 145.86 16.1685C145.392 15.894 145.013 15.5307 144.722 15.0787C144.431 14.6266 144.286 14.0292 144.286 13.2865C144.286 12.4631 144.52 11.7527 144.988 11.1554C145.457 10.5419 146.11 10.0736 146.95 9.75074C147.806 9.41169 148.815 9.24217 149.977 9.24217C150.849 9.24217 151.729 9.33904 152.617 9.53278C153.505 9.72652 154.24 10.001 154.821 10.3562L153.658 12.6569C153.045 12.2855 152.423 12.0353 151.794 11.9061C151.18 11.7608 150.566 11.6882 149.953 11.6882C149.033 11.6882 148.347 11.8254 147.894 12.0999C147.459 12.3743 147.241 12.7215 147.241 13.1412C147.241 13.5287 147.386 13.8193 147.676 14.0131C147.967 14.2068 148.347 14.3602 148.815 14.4732C149.283 14.5862 149.8 14.6831 150.365 14.7638C150.946 14.8284 151.519 14.9333 152.084 15.0787C152.649 15.224 153.166 15.4258 153.634 15.6841C154.118 15.9263 154.506 16.2734 154.797 16.7255C155.087 17.1775 155.232 17.7668 155.232 18.4934C155.232 19.3006 154.99 20.0029 154.506 20.6003C154.038 21.1977 153.368 21.6659 152.496 22.0049C151.624 22.3278 150.583 22.4893 149.372 22.4893ZM163.918 22.4893C162.481 22.4893 161.222 22.2067 160.14 21.6417C159.075 21.0604 158.243 20.2693 157.646 19.2683C157.064 18.2673 156.774 17.1291 156.774 15.8536C156.774 14.562 157.056 13.4238 157.621 12.4389C158.203 11.4379 158.994 10.6549 159.995 10.0898C161.012 9.52471 162.166 9.24217 163.458 9.24217C164.717 9.24217 165.839 9.51664 166.824 10.0656C167.809 10.6145 168.584 11.3895 169.149 12.3905C169.714 13.3915 169.997 14.5701 169.997 15.9263C169.997 16.0554 169.989 16.2007 169.973 16.3622C169.973 16.5236 169.964 16.677 169.948 16.8223H159.171V14.8123H168.35L167.163 15.4419C167.179 14.6992 167.026 14.0454 166.703 13.4803C166.38 12.9152 165.936 12.4712 165.371 12.1483C164.822 11.8254 164.185 11.6639 163.458 11.6639C162.715 11.6639 162.061 11.8254 161.496 12.1483C160.947 12.4712 160.511 12.9233 160.189 13.5045C159.882 14.0696 159.728 14.7396 159.728 15.5146V15.9989C159.728 16.7739 159.906 17.4601 160.261 18.0574C160.616 18.6548 161.117 19.1149 161.763 19.4378C162.409 19.7608 163.151 19.9222 163.991 19.9222C164.717 19.9222 165.371 19.8092 165.952 19.5832C166.534 19.3571 167.05 19.0019 167.502 18.5176L169.125 20.3823C168.544 21.0604 167.809 21.5852 166.921 21.9565C166.049 22.3117 165.048 22.4893 163.918 22.4893Z" fill="white"/>
</svg>
