<svg width="40" height="27" viewBox="0 0 40 27" fill="none" xmlns="http://www.w3.org/2000/svg">
<g id="Frame 22">
<rect width="39.3251" height="26.6395" rx="3.17138" fill="#307C31"/>
<g id="Group 2">
<path id="Rectangle 91" d="M13.3184 6.34234C13.3184 4.94113 14.4543 3.80524 15.8555 3.80524H23.4668C24.868 3.80524 26.0039 4.94113 26.0039 6.34234H13.3184Z" fill="white"/>
<g id="Group 1">
<rect id="Rectangle 92" x="16.4883" y="10.1474" width="9.51414" height="0.634275" rx="0.317137" fill="white"/>
<rect id="Rectangle 94" x="16.4883" y="12.6845" width="5.07421" height="0.634275" rx="0.317137" fill="white"/>
<rect id="Rectangle 96" x="16.4883" y="13.9533" width="3.80566" height="0.634275" rx="0.317137" fill="white"/>
<rect id="Rectangle 97" x="16.4883" y="15.2216" width="2.53711" height="0.634275" rx="0.317137" fill="white"/>
<rect id="Rectangle 98" x="16.4883" y="16.4904" width="1.26855" height="0.634275" rx="0.317137" fill="white"/>
<rect id="Rectangle 95" x="16.4883" y="11.4162" width="7.61132" height="0.634275" rx="0.317137" fill="white"/>
</g>
<path id="Rectangle 93" d="M13.4104 22.1992C13.0101 22.1992 12.6855 21.8746 12.6855 21.4743L12.6855 8.24511C12.6855 7.54451 13.2535 6.97656 13.9541 6.97656C14.6547 6.97656 15.2227 7.54451 15.2227 8.24511L15.2227 20.3869C15.2227 21.3878 14.4113 22.1992 13.4104 22.1992Z" fill="white"/>
</g>
</g>
</svg>
