<svg width="129" height="114" viewBox="0 0 129 114" fill="none" xmlns="http://www.w3.org/2000/svg">
<g id="Group 16">
<g id="Ellipse 5" filter="url(#filter0_f_210_13623)">
<ellipse cx="81.9322" cy="40.7632" rx="13.0181" ry="12.4602" fill="#FFC701" fill-opacity="0.5"/>
</g>
<path id="Ellipse 4" d="M93.8952 41.1717C93.8952 47.4556 88.5649 52.5961 81.9311 52.5961C75.2974 52.5961 69.9671 47.4556 69.9671 41.1717C69.9671 34.8877 75.2974 29.7472 81.9311 29.7472C88.5649 29.7472 93.8952 34.8877 93.8952 41.1717Z" fill="url(#paint0_linear_210_13623)" stroke="url(#paint1_linear_210_13623)" stroke-width="1.25448"/>
<g id="Mask group">
<mask id="mask0_210_13623" style="mask-type:alpha" maskUnits="userSpaceOnUse" x="69" y="35" width="26" height="19">
<path id="Ellipse 5_2" d="M94.5185 41.1718C94.5185 47.8277 88.8812 53.2235 81.9272 53.2235C74.9733 53.2235 69.3359 47.8277 69.3359 41.1718C69.3359 34.5158 74.0129 36.0652 80.9669 36.0652C87.9209 36.0652 94.5185 34.5158 94.5185 41.1718Z" fill="url(#paint2_linear_210_13623)"/>
</mask>
<g mask="url(#mask0_210_13623)">
<g id="Union" filter="url(#filter1_f_210_13623)">
<path fill-rule="evenodd" clip-rule="evenodd" d="M91.8459 72.0152C91.8808 72.0156 91.9158 72.0158 91.9508 72.0158C97.019 72.0158 101.128 68.0833 101.128 63.2324C101.128 58.3814 97.019 54.4489 91.9508 54.4489C91.9158 54.4489 91.8808 54.4491 91.8459 54.4495V54.4489H85.9968C86.1249 53.7183 86.1915 52.9676 86.1915 52.2021C86.1915 44.7565 79.8854 38.7206 72.1063 38.7206C64.3273 38.7206 58.0211 44.7565 58.0211 52.2021C58.0211 52.9975 58.0931 53.7768 58.2312 54.5344C53.7715 55.1327 50.3398 58.799 50.3398 63.2324C50.3398 68.0833 54.4484 72.0158 59.5166 72.0158C59.5515 72.0158 59.5864 72.0156 59.6212 72.0152L59.6208 72.0158H91.8459V72.0152Z" fill="#E18700"/>
</g>
</g>
</g>
<g id="Union_2" filter="url(#filter2_bd_210_13623)">
<mask id="path-5-inside-1_210_13623" fill="white">
<path fill-rule="evenodd" clip-rule="evenodd" d="M86.5061 73.0367C86.541 73.037 86.576 73.0372 86.6109 73.0372C91.6791 73.0372 95.7877 69.1047 95.7877 64.2538C95.7877 59.4028 91.6791 55.4704 86.6109 55.4704C86.576 55.4704 86.541 55.4706 86.5061 55.4709V55.4704H84.1352C84.2209 54.8693 84.2651 54.2555 84.2651 53.6319C84.2651 46.1863 77.9589 40.1504 70.1799 40.1504C62.4009 40.1504 56.0947 46.1863 56.0947 53.6319C56.0947 54.3343 56.1508 55.0241 56.259 55.6975C55.59 55.5489 54.8929 55.4704 54.1767 55.4704C49.1086 55.4704 45 59.4029 45 64.2538C45 69.1048 49.1086 73.0372 54.1767 73.0372C54.2116 73.0372 54.2465 73.0371 54.2814 73.0367L54.2809 73.0372H86.5061V73.0367Z"/>
</mask>
<path fill-rule="evenodd" clip-rule="evenodd" d="M86.5061 73.0367C86.541 73.037 86.576 73.0372 86.6109 73.0372C91.6791 73.0372 95.7877 69.1047 95.7877 64.2538C95.7877 59.4028 91.6791 55.4704 86.6109 55.4704C86.576 55.4704 86.541 55.4706 86.5061 55.4709V55.4704H84.1352C84.2209 54.8693 84.2651 54.2555 84.2651 53.6319C84.2651 46.1863 77.9589 40.1504 70.1799 40.1504C62.4009 40.1504 56.0947 46.1863 56.0947 53.6319C56.0947 54.3343 56.1508 55.0241 56.259 55.6975C55.59 55.5489 54.8929 55.4704 54.1767 55.4704C49.1086 55.4704 45 59.4029 45 64.2538C45 69.1048 49.1086 73.0372 54.1767 73.0372C54.2116 73.0372 54.2465 73.0371 54.2814 73.0367L54.2809 73.0372H86.5061V73.0367Z" fill="url(#paint3_linear_210_13623)" shape-rendering="crispEdges"/>
<path d="M86.5061 73.0367L86.5195 71.7822C86.1845 71.7787 85.862 71.9092 85.6238 72.1449C85.3856 72.3805 85.2516 72.7016 85.2516 73.0367H86.5061ZM86.5061 55.4709H85.2516C85.2516 55.806 85.3856 56.1271 85.6238 56.3627C85.862 56.5984 86.1845 56.7289 86.5195 56.7253L86.5061 55.4709ZM86.5061 55.4704H87.7606C87.7606 54.7775 87.1989 54.2159 86.5061 54.2159V55.4704ZM84.1352 55.4704L82.8933 55.2934C82.842 55.6534 82.9494 56.0179 83.1877 56.2925C83.426 56.5671 83.7716 56.7248 84.1352 56.7248V55.4704ZM56.259 55.6975L55.9871 56.9221C56.3928 57.0123 56.8169 56.8955 57.1194 56.6104C57.4219 56.3253 57.5635 55.9089 57.4976 55.4985L56.259 55.6975ZM54.2814 73.0367L55.2505 73.8332C55.5601 73.4565 55.6234 72.9345 55.4127 72.4947C55.202 72.0549 54.7555 71.777 54.2679 71.7823L54.2814 73.0367ZM54.2809 73.0372L53.3118 72.2406C53.0037 72.6155 52.9394 73.1344 53.1467 73.5731C53.354 74.0119 53.7957 74.2917 54.2809 74.2917V73.0372ZM86.5061 73.0372V74.2917C87.1989 74.2917 87.7606 73.73 87.7606 73.0372H86.5061ZM86.4927 74.2911C86.5321 74.2915 86.5715 74.2917 86.6109 74.2917V71.7827C86.5804 71.7827 86.5499 71.7826 86.5195 71.7822L86.4927 74.2911ZM86.6109 74.2917C92.3196 74.2917 97.0421 69.8488 97.0421 64.2538H94.5332C94.5332 68.3607 91.0386 71.7827 86.6109 71.7827V74.2917ZM97.0421 64.2538C97.0421 58.6588 92.3196 54.2159 86.6109 54.2159V56.7248C91.0386 56.7248 94.5332 60.1469 94.5332 64.2538H97.0421ZM86.6109 54.2159C86.5715 54.2159 86.532 54.2161 86.4927 54.2165L86.5195 56.7253C86.55 56.725 86.5804 56.7248 86.6109 56.7248V54.2159ZM85.2516 55.4704V55.4709H87.7606V55.4704H85.2516ZM84.1352 56.7248H86.5061V54.2159H84.1352V56.7248ZM85.3772 55.6473C85.4711 54.9878 85.5196 54.3149 85.5196 53.6319H83.0106C83.0106 54.1961 82.9706 54.7507 82.8933 55.2934L85.3772 55.6473ZM85.5196 53.6319C85.5196 45.4422 78.5994 38.8959 70.1799 38.8959V41.4049C77.3185 41.4049 83.0106 46.9303 83.0106 53.6319H85.5196ZM70.1799 38.8959C61.7604 38.8959 54.8402 45.4422 54.8402 53.6319H57.3492C57.3492 46.9303 63.0414 41.4049 70.1799 41.4049V38.8959ZM54.8402 53.6319C54.8402 54.4012 54.9017 55.1576 55.0204 55.8965L57.4976 55.4985C57.4 54.8906 57.3492 54.2673 57.3492 53.6319H54.8402ZM56.531 54.4729C55.7731 54.3046 54.9849 54.2159 54.1767 54.2159V56.7249C54.801 56.7249 55.4069 56.7933 55.9871 56.9221L56.531 54.4729ZM54.1767 54.2159C48.4681 54.2159 43.7455 58.6588 43.7455 64.2538H46.2545C46.2545 60.1469 49.749 56.7249 54.1767 56.7249V54.2159ZM43.7455 64.2538C43.7455 69.8488 48.4681 74.2917 54.1767 74.2917V71.7828C49.749 71.7828 46.2545 68.3607 46.2545 64.2538H43.7455ZM54.1767 74.2917C54.2161 74.2917 54.2555 74.2915 54.2948 74.2911L54.2679 71.7823C54.2376 71.7826 54.2072 71.7828 54.1767 71.7828V74.2917ZM55.25 73.8338L55.2505 73.8332L53.3122 72.2401L53.3118 72.2406L55.25 73.8338ZM86.5061 71.7827H54.2809V74.2917H86.5061V71.7827ZM85.2516 73.0367V73.0372H87.7606V73.0367H85.2516Z" fill="url(#paint4_linear_210_13623)" mask="url(#path-5-inside-1_210_13623)"/>
</g>
<g id="Union_3" filter="url(#filter3_bd_210_13623)">
<mask id="path-7-inside-2_210_13623" fill="white">
<path fill-rule="evenodd" clip-rule="evenodd" d="M103.175 63.9168C103.2 63.9171 103.226 63.9173 103.252 63.9173C106.915 63.9173 109.884 61.0753 109.884 57.5696C109.884 54.0638 106.915 51.2219 103.252 51.2219C103.226 51.2219 103.2 51.222 103.175 51.2223V51.2219H101.461C101.522 50.7875 101.554 50.344 101.554 49.8933C101.554 44.5125 96.997 40.1504 91.3752 40.1504C85.7534 40.1504 81.196 44.5125 81.196 49.8933C81.196 50.4008 81.2365 50.8992 81.3146 51.3857C80.8317 51.2786 80.3286 51.222 79.8116 51.222C76.1489 51.222 73.1797 54.0639 73.1797 57.5696C73.1797 61.0754 76.1489 63.9173 79.8116 63.9173C79.8364 63.9173 79.8613 63.9172 79.886 63.9169L79.8858 63.9173H103.175V63.9168Z"/>
</mask>
<path fill-rule="evenodd" clip-rule="evenodd" d="M103.175 63.9168C103.2 63.9171 103.226 63.9173 103.252 63.9173C106.915 63.9173 109.884 61.0753 109.884 57.5696C109.884 54.0638 106.915 51.2219 103.252 51.2219C103.226 51.2219 103.2 51.222 103.175 51.2223V51.2219H101.461C101.522 50.7875 101.554 50.344 101.554 49.8933C101.554 44.5125 96.997 40.1504 91.3752 40.1504C85.7534 40.1504 81.196 44.5125 81.196 49.8933C81.196 50.4008 81.2365 50.8992 81.3146 51.3857C80.8317 51.2786 80.3286 51.222 79.8116 51.222C76.1489 51.222 73.1797 54.0639 73.1797 57.5696C73.1797 61.0754 76.1489 63.9173 79.8116 63.9173C79.8364 63.9173 79.8613 63.9172 79.886 63.9169L79.8858 63.9173H103.175V63.9168Z" fill="url(#paint5_linear_210_13623)" shape-rendering="crispEdges"/>
<path d="M103.175 63.9168L103.188 62.6624C102.853 62.6588 102.531 62.7893 102.292 63.0249C102.054 63.2606 101.92 63.5817 101.92 63.9168H103.175ZM103.175 51.2223H101.92C101.92 51.5574 102.054 51.8786 102.292 52.1142C102.531 52.3499 102.853 52.4804 103.188 52.4767L103.175 51.2223ZM103.175 51.2219H104.429C104.429 50.5291 103.867 49.9674 103.175 49.9674V51.2219ZM101.461 51.2219L100.219 51.045C100.167 51.4049 100.275 51.7694 100.513 52.044C100.751 52.3186 101.097 52.4764 101.461 52.4764V51.2219ZM81.3146 51.3857L81.043 52.6104C81.4488 52.7004 81.8727 52.5836 82.1751 52.2985C82.4776 52.0134 82.6192 51.5971 82.5533 51.1868L81.3146 51.3857ZM79.886 63.9169L80.8536 64.7153C81.1643 64.3389 81.2284 63.8165 81.018 63.3761C80.8076 62.9357 80.3608 62.6574 79.8728 62.6625L79.886 63.9169ZM79.8858 63.9173L78.9182 63.1188C78.6091 63.4934 78.544 64.0128 78.751 64.4521C78.9581 64.8914 79.4001 65.1717 79.8858 65.1717V63.9173ZM103.175 63.9173V65.1717C103.867 65.1717 104.429 64.6101 104.429 63.9173H103.175ZM103.161 65.1712C103.191 65.1716 103.222 65.1717 103.252 65.1717V62.6628C103.231 62.6628 103.21 62.6627 103.188 62.6624L103.161 65.1712ZM103.252 65.1717C107.555 65.1717 111.138 61.8194 111.138 57.5696H108.629C108.629 60.3313 106.274 62.6628 103.252 62.6628V65.1717ZM111.138 57.5696C111.138 53.3198 107.555 49.9674 103.252 49.9674V52.4764C106.274 52.4764 108.629 54.8079 108.629 57.5696H111.138ZM103.252 49.9674C103.222 49.9674 103.191 49.9676 103.161 49.9679L103.188 52.4767C103.21 52.4765 103.231 52.4764 103.252 52.4764V49.9674ZM101.92 51.2219V51.2223H104.429V51.2219H101.92ZM101.461 52.4764H103.175V49.9674H101.461V52.4764ZM102.702 51.3988C102.773 50.906 102.809 50.4034 102.809 49.8933H100.3C100.3 50.2846 100.272 50.669 100.219 51.045L102.702 51.3988ZM102.809 49.8933C102.809 43.7684 97.6375 38.8959 91.3752 38.8959V41.4049C96.3565 41.4049 100.3 45.2565 100.3 49.8933H102.809ZM91.3752 38.8959C85.1129 38.8959 79.9415 43.7684 79.9415 49.8933H82.4505C82.4505 45.2565 86.3938 41.4049 91.3752 41.4049V38.8959ZM79.9415 49.8933C79.9415 50.4677 79.9874 51.0326 80.076 51.5846L82.5533 51.1868C82.4856 50.7657 82.4505 50.3339 82.4505 49.8933H79.9415ZM81.5863 50.161C81.0146 50.0342 80.4204 49.9675 79.8116 49.9675V52.4764C80.2368 52.4764 80.6488 52.523 81.043 52.6104L81.5863 50.161ZM79.8116 49.9675C75.5084 49.9675 71.9252 53.3199 71.9252 57.5696H74.4342C74.4342 54.808 76.7894 52.4764 79.8116 52.4764V49.9675ZM71.9252 57.5696C71.9252 61.8194 75.5084 65.1718 79.8116 65.1718V62.6628C76.7894 62.6628 74.4342 60.3313 74.4342 57.5696H71.9252ZM79.8116 65.1718C79.8408 65.1718 79.87 65.1716 79.8993 65.1713L79.8728 62.6625C79.8525 62.6627 79.8321 62.6628 79.8116 62.6628V65.1718ZM80.8534 64.7157L80.8536 64.7153L78.9184 63.1185L78.9182 63.1188L80.8534 64.7157ZM103.175 62.6628H79.8858V65.1717H103.175V62.6628ZM101.92 63.9168V63.9173H104.429V63.9168H101.92Z" fill="url(#paint6_linear_210_13623)" mask="url(#path-7-inside-2_210_13623)"/>
</g>
</g>
<defs>
<filter id="filter0_f_210_13623" x="41.3155" y="0.70443" width="81.2342" height="80.1175" filterUnits="userSpaceOnUse" color-interpolation-filters="sRGB">
<feFlood flood-opacity="0" result="BackgroundImageFix"/>
<feBlend mode="normal" in="SourceGraphic" in2="BackgroundImageFix" result="shape"/>
<feGaussianBlur stdDeviation="13.7993" result="effect1_foregroundBlur_210_13623"/>
</filter>
<filter id="filter1_f_210_13623" x="41.5585" y="29.9392" width="68.3498" height="50.8579" filterUnits="userSpaceOnUse" color-interpolation-filters="sRGB">
<feFlood flood-opacity="0" result="BackgroundImageFix"/>
<feBlend mode="normal" in="SourceGraphic" in2="BackgroundImageFix" result="shape"/>
<feGaussianBlur stdDeviation="4.39068" result="effect1_foregroundBlur_210_13623"/>
</filter>
<filter id="filter2_bd_210_13623" x="0.465973" y="18.197" width="113.511" height="95.6108" filterUnits="userSpaceOnUse" color-interpolation-filters="sRGB">
<feFlood flood-opacity="0" result="BackgroundImageFix"/>
<feGaussianBlur in="BackgroundImageFix" stdDeviation="4.39068"/>
<feComposite in2="SourceAlpha" operator="in" result="effect1_backgroundBlur_210_13623"/>
<feColorMatrix in="SourceAlpha" type="matrix" values="0 0 0 0 0 0 0 0 0 0 0 0 0 0 0 0 0 0 127 0" result="hardAlpha"/>
<feOffset dx="-13.172" dy="9.4086"/>
<feGaussianBlur stdDeviation="15.681"/>
<feComposite in2="hardAlpha" operator="out"/>
<feColorMatrix type="matrix" values="0 0 0 0 0.113725 0 0 0 0 0.14902 0 0 0 0 0.27451 0 0 0 0.25 0"/>
<feBlend mode="normal" in2="effect1_backgroundBlur_210_13623" result="effect2_dropShadow_210_13623"/>
<feBlend mode="normal" in="SourceGraphic" in2="effect2_dropShadow_210_13623" result="shape"/>
</filter>
<filter id="filter3_bd_210_13623" x="28.6457" y="18.197" width="99.4291" height="86.4909" filterUnits="userSpaceOnUse" color-interpolation-filters="sRGB">
<feFlood flood-opacity="0" result="BackgroundImageFix"/>
<feGaussianBlur in="BackgroundImageFix" stdDeviation="4.39068"/>
<feComposite in2="SourceAlpha" operator="in" result="effect1_backgroundBlur_210_13623"/>
<feColorMatrix in="SourceAlpha" type="matrix" values="0 0 0 0 0 0 0 0 0 0 0 0 0 0 0 0 0 0 127 0" result="hardAlpha"/>
<feOffset dx="-13.172" dy="9.4086"/>
<feGaussianBlur stdDeviation="15.681"/>
<feComposite in2="hardAlpha" operator="out"/>
<feColorMatrix type="matrix" values="0 0 0 0 0.113438 0 0 0 0 0.148981 0 0 0 0 0.275 0 0 0 0.25 0"/>
<feBlend mode="normal" in2="effect1_backgroundBlur_210_13623" result="effect2_dropShadow_210_13623"/>
<feBlend mode="normal" in="SourceGraphic" in2="effect2_dropShadow_210_13623" result="shape"/>
</filter>
<linearGradient id="paint0_linear_210_13623" x1="81.9311" y1="29.12" x2="81.9311" y2="53.2233" gradientUnits="userSpaceOnUse">
<stop stop-color="#FFE600"/>
<stop offset="1" stop-color="#FF7A00"/>
</linearGradient>
<linearGradient id="paint1_linear_210_13623" x1="81.9311" y1="29.12" x2="81.9311" y2="53.2233" gradientUnits="userSpaceOnUse">
<stop stop-color="white"/>
<stop offset="1" stop-color="white" stop-opacity="0"/>
</linearGradient>
<linearGradient id="paint2_linear_210_13623" x1="81.9272" y1="29.1201" x2="81.9272" y2="53.2235" gradientUnits="userSpaceOnUse">
<stop stop-color="#FFD600"/>
<stop offset="1" stop-color="#FF7A00"/>
</linearGradient>
<linearGradient id="paint3_linear_210_13623" x1="70.3938" y1="29.6307" x2="70.3938" y2="77.6332" gradientUnits="userSpaceOnUse">
<stop stop-color="white"/>
<stop offset="1" stop-color="white" stop-opacity="0"/>
</linearGradient>
<linearGradient id="paint4_linear_210_13623" x1="70.3938" y1="40.1504" x2="70.3938" y2="73.0372" gradientUnits="userSpaceOnUse">
<stop stop-color="white"/>
<stop offset="1" stop-color="white" stop-opacity="0"/>
</linearGradient>
<linearGradient id="paint5_linear_210_13623" x1="93.239" y1="40.8653" x2="93.239" y2="66.6028" gradientUnits="userSpaceOnUse">
<stop stop-color="white"/>
<stop offset="1" stop-color="white" stop-opacity="0"/>
</linearGradient>
<linearGradient id="paint6_linear_210_13623" x1="91.5318" y1="40.1504" x2="91.5318" y2="63.9173" gradientUnits="userSpaceOnUse">
<stop stop-color="white"/>
<stop offset="1" stop-color="white" stop-opacity="0"/>
</linearGradient>
</defs>
</svg>
