<svg width="132" height="125" viewBox="0 0 132 125" fill="none" xmlns="http://www.w3.org/2000/svg">
<g id="Component 2">
<g id="Vector 2" filter="url(#filter0_bdd_210_14023)">
<path d="M63.196 64.942L72.9624 47.1265C73.1826 46.7248 73.6043 46.475 74.0624 46.475H82.7192C83.6628 46.475 84.2686 47.4777 83.8296 48.3131L78.4078 58.6309C77.9688 59.4662 78.5746 60.4689 79.5183 60.4689H84.5464C85.6317 60.4689 86.2049 61.7537 85.4799 62.5614L67.1779 82.9515C66.2516 83.9834 64.5829 82.9716 65.0697 81.6732L70.0101 68.4943C70.3176 67.6742 69.7113 66.7995 68.8355 66.7995H64.296C63.3427 66.7995 62.7377 65.778 63.196 64.942Z" fill="url(#paint0_linear_210_14023)"/>
<path d="M63.746 65.2435L73.5124 47.428C73.6225 47.2271 73.8333 47.1023 74.0624 47.1023H82.7192C83.191 47.1023 83.4939 47.6036 83.2744 48.0213L77.8525 58.3391C77.1941 59.5921 78.1028 61.0962 79.5183 61.0962H84.5464C85.089 61.0962 85.3756 61.7386 85.0132 62.1424L66.7111 82.5325C66.248 83.0485 65.4136 82.5425 65.657 81.8933L70.5974 68.7145C71.0586 67.4844 70.1492 66.1723 68.8355 66.1723H64.296C63.8193 66.1723 63.5169 65.6615 63.746 65.2435Z" stroke="url(#paint1_linear_210_14023)" stroke-width="1.25448"/>
</g>
<g id="Union" filter="url(#filter1_bd_210_14023)">
<mask id="path-3-inside-1_210_14023" fill="white">
<path fill-rule="evenodd" clip-rule="evenodd" d="M88.8058 57.8027C88.843 57.8032 88.8803 57.8034 88.9177 57.8034C94.2096 57.8034 98.4996 53.5271 98.4996 48.252C98.4996 42.9769 94.2096 38.7006 88.9177 38.7006C88.8803 38.7006 88.843 38.7008 88.8058 38.7012V38.7006H86.3315C86.4209 38.0469 86.4671 37.3796 86.4671 36.7015C86.4671 28.6048 79.8825 22.0412 71.76 22.0412C63.6375 22.0412 57.0529 28.6048 57.0529 36.7015C57.0529 37.4655 57.1115 38.2159 57.2245 38.9484C56.5249 38.7863 55.7959 38.7006 55.0468 38.7006C49.7548 38.7006 45.4648 42.9769 45.4648 48.252C45.4648 53.5271 49.7548 57.8034 55.0468 57.8034C55.0839 57.8034 55.1211 57.8032 55.1582 57.8027L55.1577 57.8034H88.8058V57.8027Z"/>
</mask>
<path fill-rule="evenodd" clip-rule="evenodd" d="M88.8058 57.8027C88.843 57.8032 88.8803 57.8034 88.9177 57.8034C94.2096 57.8034 98.4996 53.5271 98.4996 48.252C98.4996 42.9769 94.2096 38.7006 88.9177 38.7006C88.8803 38.7006 88.843 38.7008 88.8058 38.7012V38.7006H86.3315C86.4209 38.0469 86.4671 37.3796 86.4671 36.7015C86.4671 28.6048 79.8825 22.0412 71.76 22.0412C63.6375 22.0412 57.0529 28.6048 57.0529 36.7015C57.0529 37.4655 57.1115 38.2159 57.2245 38.9484C56.5249 38.7863 55.7959 38.7006 55.0468 38.7006C49.7548 38.7006 45.4648 42.9769 45.4648 48.252C45.4648 53.5271 49.7548 57.8034 55.0468 57.8034C55.0839 57.8034 55.1211 57.8032 55.1582 57.8027L55.1577 57.8034H88.8058V57.8027Z" fill="url(#paint2_linear_210_14023)" shape-rendering="crispEdges"/>
<path d="M88.8058 57.8027L88.82 56.5483C88.4849 56.5445 88.1621 56.675 87.9238 56.9107C87.6854 57.1463 87.5513 57.4676 87.5513 57.8027H88.8058ZM88.8058 38.7012H87.5513C87.5513 39.0364 87.6854 39.3577 87.9238 39.5933C88.1622 39.829 88.4849 39.9595 88.8201 39.9556L88.8058 38.7012ZM88.8058 38.7006H90.0602C90.0602 38.0078 89.4986 37.4461 88.8058 37.4461V38.7006ZM86.3315 38.7006L85.0886 38.5306C85.0395 38.8896 85.148 39.2523 85.3862 39.5253C85.6245 39.7984 85.9691 39.9551 86.3315 39.9551V38.7006ZM57.2245 38.9484L56.9414 40.1705C57.347 40.2644 57.7727 40.1511 58.0779 39.8679C58.383 39.5847 58.5278 39.1685 58.4643 38.7571L57.2245 38.9484ZM55.1582 57.8027L56.1422 58.5808C56.4421 58.2015 56.4973 57.6837 56.2842 57.2497C56.071 56.8157 55.6274 56.5429 55.144 56.5483L55.1582 57.8027ZM55.1577 57.8034L54.1736 57.0253C53.8753 57.4026 53.819 57.9172 54.0286 58.35C54.2381 58.7829 54.6767 59.0579 55.1577 59.0579V57.8034ZM88.8058 57.8034V59.0579C89.4986 59.0579 90.0602 58.4962 90.0602 57.8034H88.8058ZM88.7915 59.0571C88.8335 59.0576 88.8756 59.0579 88.9177 59.0579V56.5489C88.8851 56.5489 88.8526 56.5487 88.82 56.5483L88.7915 59.0571ZM88.9177 59.0579C94.8987 59.0579 99.7541 54.2237 99.7541 48.252H97.2451C97.2451 52.8305 93.5206 56.5489 88.9177 56.5489V59.0579ZM99.7541 48.252C99.7541 42.2803 94.8987 37.4461 88.9177 37.4461V39.9551C93.5206 39.9551 97.2451 43.6735 97.2451 48.252H99.7541ZM88.9177 37.4461C88.8756 37.4461 88.8335 37.4464 88.7914 37.4468L88.8201 39.9556C88.8526 39.9553 88.8851 39.9551 88.9177 39.9551V37.4461ZM87.5513 38.7006V38.7012H90.0602V38.7006H87.5513ZM86.3315 39.9551H88.8058V37.4461H86.3315V39.9551ZM87.5744 38.8706C87.6715 38.1608 87.7216 37.4366 87.7216 36.7015H85.2126C85.2126 37.3226 85.1703 37.9331 85.0886 38.5306L87.5744 38.8706ZM87.7216 36.7015C87.7216 27.9082 80.5715 20.7867 71.76 20.7867V23.2957C79.1934 23.2957 85.2126 29.3014 85.2126 36.7015H87.7216ZM71.76 20.7867C62.9484 20.7867 55.7984 27.9082 55.7984 36.7015H58.3073C58.3073 29.3014 64.3265 23.2957 71.76 23.2957V20.7867ZM55.7984 36.7015C55.7984 37.5298 55.8619 38.3441 55.9847 39.1397L58.4643 38.7571C58.361 38.0876 58.3073 37.4012 58.3073 36.7015H55.7984ZM57.5076 37.7262C56.7158 37.5428 55.8918 37.4461 55.0468 37.4461V39.9551C55.6999 39.9551 56.334 40.0298 56.9414 40.1705L57.5076 37.7262ZM55.0468 37.4461C49.0658 37.4461 44.2104 42.2803 44.2104 48.252H46.7193C46.7193 43.6735 50.4439 39.9551 55.0468 39.9551V37.4461ZM44.2104 48.252C44.2104 54.2237 49.0658 59.0579 55.0468 59.0579V56.5489C50.4439 56.5489 46.7193 52.8305 46.7193 48.252H44.2104ZM55.0468 59.0579C55.0887 59.0579 55.1306 59.0576 55.1724 59.0571L55.144 56.5483C55.1115 56.5487 55.0791 56.5489 55.0468 56.5489V59.0579ZM56.1417 58.5814L56.1422 58.5808L54.1741 57.0247L54.1736 57.0253L56.1417 58.5814ZM88.8058 56.5489H55.1577V59.0579H88.8058V56.5489ZM87.5513 57.8027V57.8034H90.0602V57.8027H87.5513Z" fill="url(#paint3_linear_210_14023)" mask="url(#path-3-inside-1_210_14023)"/>
</g>
<g id="Union_2" filter="url(#filter2_bd_210_14023)">
<mask id="path-5-inside-2_210_14023" fill="white">
<path fill-rule="evenodd" clip-rule="evenodd" d="M106.201 47.8857C106.228 47.886 106.255 47.8861 106.282 47.8861C110.106 47.8861 113.207 44.7957 113.207 40.9834C113.207 37.1712 110.106 34.0807 106.282 34.0807C106.255 34.0807 106.228 34.0809 106.201 34.0812V34.0807H104.413C104.478 33.6084 104.511 33.1261 104.511 32.636C104.511 26.7847 99.7523 22.0412 93.8822 22.0412C88.0122 22.0412 83.2535 26.7847 83.2535 32.636C83.2535 33.1882 83.2959 33.7305 83.3776 34.2598C82.8719 34.1427 82.3451 34.0807 81.8036 34.0807C77.9792 34.0807 74.8789 37.1712 74.8789 40.9834C74.8789 44.7957 77.9792 47.8861 81.8036 47.8861C81.8306 47.8861 81.8574 47.886 81.8843 47.8857L81.8839 47.8861H106.201V47.8857Z"/>
</mask>
<path fill-rule="evenodd" clip-rule="evenodd" d="M106.201 47.8857C106.228 47.886 106.255 47.8861 106.282 47.8861C110.106 47.8861 113.207 44.7957 113.207 40.9834C113.207 37.1712 110.106 34.0807 106.282 34.0807C106.255 34.0807 106.228 34.0809 106.201 34.0812V34.0807H104.413C104.478 33.6084 104.511 33.1261 104.511 32.636C104.511 26.7847 99.7523 22.0412 93.8822 22.0412C88.0122 22.0412 83.2535 26.7847 83.2535 32.636C83.2535 33.1882 83.2959 33.7305 83.3776 34.2598C82.8719 34.1427 82.3451 34.0807 81.8036 34.0807C77.9792 34.0807 74.8789 37.1712 74.8789 40.9834C74.8789 44.7957 77.9792 47.8861 81.8036 47.8861C81.8306 47.8861 81.8574 47.886 81.8843 47.8857L81.8839 47.8861H106.201V47.8857Z" fill="url(#paint4_linear_210_14023)" shape-rendering="crispEdges"/>
<path d="M106.201 47.8857L106.215 46.6313C105.88 46.6274 105.557 46.7579 105.319 46.9936C105.081 47.2292 104.947 47.5505 104.947 47.8857H106.201ZM106.201 34.0812H104.947C104.947 34.4164 105.081 34.7376 105.319 34.9733C105.557 35.209 105.88 35.3394 106.215 35.3356L106.201 34.0812ZM106.201 34.0807H107.456C107.456 33.3879 106.894 32.8263 106.201 32.8263V34.0807ZM104.413 34.0807L103.17 33.9107C103.121 34.2698 103.229 34.6325 103.468 34.9055C103.706 35.1785 104.051 35.3352 104.413 35.3352V34.0807ZM83.3776 34.2598L83.0944 35.4819C83.5 35.5759 83.9258 35.4625 84.231 35.1793C84.5361 34.8961 84.6809 34.48 84.6174 34.0685L83.3776 34.2598ZM81.8843 47.8857L82.8678 48.6643C83.168 48.2851 83.2235 47.7671 83.0104 47.3329C82.7973 46.8988 82.3536 46.6258 81.87 46.6313L81.8843 47.8857ZM81.8839 47.8861L80.9003 47.1075C80.6017 47.4846 80.5451 47.9994 80.7546 48.4324C80.9641 48.8655 81.4028 49.1406 81.8839 49.1406V47.8861ZM106.201 47.8861V49.1406C106.894 49.1406 107.456 48.5789 107.456 47.8861H106.201ZM106.187 49.1401C106.218 49.1404 106.25 49.1406 106.282 49.1406V46.6316C106.26 46.6316 106.238 46.6315 106.215 46.6313L106.187 49.1401ZM106.282 49.1406C110.795 49.1406 114.461 45.4923 114.461 40.9834H111.952C111.952 44.0991 109.417 46.6316 106.282 46.6316V49.1406ZM114.461 40.9834C114.461 36.4746 110.795 32.8263 106.282 32.8263V35.3352C109.417 35.3352 111.952 37.8678 111.952 40.9834H114.461ZM106.282 32.8263C106.25 32.8263 106.218 32.8264 106.187 32.8268L106.215 35.3356C106.238 35.3354 106.26 35.3352 106.282 35.3352V32.8263ZM104.947 34.0807V34.0812H107.456V34.0807H104.947ZM104.413 35.3352H106.201V32.8263H104.413V35.3352ZM105.656 34.2508C105.728 33.7222 105.765 33.1831 105.765 32.636H103.256C103.256 33.069 103.227 33.4945 103.17 33.9107L105.656 34.2508ZM105.765 32.636C105.765 26.0881 100.441 20.7867 93.8822 20.7867V23.2957C99.0632 23.2957 103.256 27.4813 103.256 32.636H105.765ZM93.8822 20.7867C87.3231 20.7867 81.9991 26.0881 81.9991 32.636H84.508C84.508 27.4813 88.7012 23.2957 93.8822 23.2957V20.7867ZM81.9991 32.636C81.9991 33.2524 82.0464 33.8587 82.1378 34.4511L84.6174 34.0685C84.5455 33.6022 84.508 33.1239 84.508 32.636H81.9991ZM83.6607 33.0377C83.0629 32.8992 82.441 32.8263 81.8036 32.8263V35.3352C82.2491 35.3352 82.681 35.3862 83.0944 35.4819L83.6607 33.0377ZM81.8036 32.8263C77.2902 32.8263 73.6244 36.4746 73.6244 40.9834H76.1334C76.1334 37.8678 78.6683 35.3352 81.8036 35.3352V32.8263ZM73.6244 40.9834C73.6244 45.4923 77.2902 49.1406 81.8036 49.1406V46.6316C78.6683 46.6316 76.1334 44.0991 76.1334 40.9834H73.6244ZM81.8036 49.1406C81.8353 49.1406 81.8669 49.1404 81.8985 49.1401L81.87 46.6313C81.8479 46.6315 81.8258 46.6316 81.8036 46.6316V49.1406ZM82.8675 48.6648L82.8678 48.6643L80.9007 47.107L80.9003 47.1075L82.8675 48.6648ZM106.201 46.6316H81.8839V49.1406H106.201V46.6316ZM104.947 47.8857V47.8861H107.456V47.8857H104.947Z" fill="url(#paint5_linear_210_14023)" mask="url(#path-5-inside-2_210_14023)"/>
</g>
</g>
<defs>
<filter id="filter0_bdd_210_14023" x="18.505" y="8.21341" width="105.559" height="115.934" filterUnits="userSpaceOnUse" color-interpolation-filters="sRGB">
<feFlood flood-opacity="0" result="BackgroundImageFix"/>
<feGaussianBlur in="BackgroundImageFix" stdDeviation="4.39068"/>
<feComposite in2="SourceAlpha" operator="in" result="effect1_backgroundBlur_210_14023"/>
<feColorMatrix in="SourceAlpha" type="matrix" values="0 0 0 0 0 0 0 0 0 0 0 0 0 0 0 0 0 0 127 0" result="hardAlpha"/>
<feOffset dx="-13.172" dy="9.4086"/>
<feGaussianBlur stdDeviation="15.681"/>
<feComposite in2="hardAlpha" operator="out"/>
<feColorMatrix type="matrix" values="0 0 0 0 0.113438 0 0 0 0 0.148981 0 0 0 0 0.275 0 0 0 0.25 0"/>
<feBlend mode="normal" in2="effect1_backgroundBlur_210_14023" result="effect2_dropShadow_210_14023"/>
<feColorMatrix in="SourceAlpha" type="matrix" values="0 0 0 0 0 0 0 0 0 0 0 0 0 0 0 0 0 0 127 0" result="hardAlpha"/>
<feOffset/>
<feGaussianBlur stdDeviation="19.1308"/>
<feComposite in2="hardAlpha" operator="out"/>
<feColorMatrix type="matrix" values="0 0 0 0 1 0 0 0 0 0.721569 0 0 0 0 0.00392157 0 0 0 0.49 0"/>
<feBlend mode="normal" in2="effect2_dropShadow_210_14023" result="effect3_dropShadow_210_14023"/>
<feBlend mode="normal" in="SourceGraphic" in2="effect3_dropShadow_210_14023" result="shape"/>
</filter>
<filter id="filter1_bd_210_14023" x="0.930816" y="0.0878038" width="115.759" height="98.4861" filterUnits="userSpaceOnUse" color-interpolation-filters="sRGB">
<feFlood flood-opacity="0" result="BackgroundImageFix"/>
<feGaussianBlur in="BackgroundImageFix" stdDeviation="4.39068"/>
<feComposite in2="SourceAlpha" operator="in" result="effect1_backgroundBlur_210_14023"/>
<feColorMatrix in="SourceAlpha" type="matrix" values="0 0 0 0 0 0 0 0 0 0 0 0 0 0 0 0 0 0 127 0" result="hardAlpha"/>
<feOffset dx="-13.172" dy="9.4086"/>
<feGaussianBlur stdDeviation="15.681"/>
<feComposite in2="hardAlpha" operator="out"/>
<feColorMatrix type="matrix" values="0 0 0 0 0.113725 0 0 0 0 0.14902 0 0 0 0 0.27451 0 0 0 0.25 0"/>
<feBlend mode="normal" in2="effect1_backgroundBlur_210_14023" result="effect2_dropShadow_210_14023"/>
<feBlend mode="normal" in="SourceGraphic" in2="effect2_dropShadow_210_14023" result="shape"/>
</filter>
<filter id="filter2_bd_210_14023" x="30.3449" y="0.0878038" width="101.052" height="88.5689" filterUnits="userSpaceOnUse" color-interpolation-filters="sRGB">
<feFlood flood-opacity="0" result="BackgroundImageFix"/>
<feGaussianBlur in="BackgroundImageFix" stdDeviation="4.39068"/>
<feComposite in2="SourceAlpha" operator="in" result="effect1_backgroundBlur_210_14023"/>
<feColorMatrix in="SourceAlpha" type="matrix" values="0 0 0 0 0 0 0 0 0 0 0 0 0 0 0 0 0 0 127 0" result="hardAlpha"/>
<feOffset dx="-13.172" dy="9.4086"/>
<feGaussianBlur stdDeviation="15.681"/>
<feComposite in2="hardAlpha" operator="out"/>
<feColorMatrix type="matrix" values="0 0 0 0 0.113438 0 0 0 0 0.148981 0 0 0 0 0.275 0 0 0 0.25 0"/>
<feBlend mode="normal" in2="effect1_backgroundBlur_210_14023" result="effect2_dropShadow_210_14023"/>
<feBlend mode="normal" in="SourceGraphic" in2="effect2_dropShadow_210_14023" result="shape"/>
</filter>
<linearGradient id="paint0_linear_210_14023" x1="77.2191" y1="48.9184" x2="71.6819" y2="73.0267" gradientUnits="userSpaceOnUse">
<stop stop-color="#FF4D00"/>
<stop offset="1" stop-color="#FFB800"/>
</linearGradient>
<linearGradient id="paint1_linear_210_14023" x1="69.7541" y1="72.6858" x2="79.8401" y2="51.0039" gradientUnits="userSpaceOnUse">
<stop stop-color="white"/>
<stop offset="1" stop-color="white" stop-opacity="0"/>
</linearGradient>
<linearGradient id="paint2_linear_210_14023" x1="71.9822" y1="10.6017" x2="71.9822" y2="62.8012" gradientUnits="userSpaceOnUse">
<stop stop-color="white"/>
<stop offset="1" stop-color="white" stop-opacity="0"/>
</linearGradient>
<linearGradient id="paint3_linear_210_14023" x1="71.9822" y1="22.0412" x2="71.9822" y2="57.8034" gradientUnits="userSpaceOnUse">
<stop stop-color="white"/>
<stop offset="1" stop-color="white" stop-opacity="0"/>
</linearGradient>
<linearGradient id="paint4_linear_210_14023" x1="95.8254" y1="22.8186" x2="95.8254" y2="50.8064" gradientUnits="userSpaceOnUse">
<stop stop-color="white"/>
<stop offset="1" stop-color="white" stop-opacity="0"/>
</linearGradient>
<linearGradient id="paint5_linear_210_14023" x1="94.0427" y1="22.0412" x2="94.0427" y2="47.8861" gradientUnits="userSpaceOnUse">
<stop stop-color="white"/>
<stop offset="1" stop-color="white" stop-opacity="0"/>
</linearGradient>
</defs>
</svg>
