<svg width="172" height="31" viewBox="0 0 172 31" fill="none" xmlns="http://www.w3.org/2000/svg">
<rect y="0.855469" width="39.2874" height="26.614" rx="3.16833" fill="#CFFF91"/>
<path d="M13.3066 7.19165C13.3066 5.79179 14.4414 4.65698 15.8413 4.65698H23.4453C24.8452 4.65698 25.98 5.79179 25.98 7.19165H13.3066Z" fill="#282828"/>
<rect x="16.4727" y="10.993" width="9.50501" height="0.633666" rx="0.316833" fill="#282828"/>
<rect x="16.4727" y="13.5277" width="5.06934" height="0.633666" rx="0.316833" fill="#282828"/>
<rect x="16.4727" y="14.7953" width="3.802" height="0.633666" rx="0.316833" fill="#282828"/>
<rect x="16.4727" y="16.0623" width="2.53467" height="0.633666" rx="0.316833" fill="#282828"/>
<rect x="16.4727" y="17.33" width="1.26733" height="0.633666" rx="0.316833" fill="#282828"/>
<rect x="16.4727" y="12.2606" width="7.60401" height="0.633666" rx="0.316833" fill="#282828"/>
<path d="M13.398 23.0332C12.9981 23.0332 12.6738 22.709 12.6738 22.309L12.6738 9.09256C12.6738 8.39263 13.2412 7.82523 13.9412 7.82523C14.6411 7.82523 15.2085 8.39263 15.2085 9.09256L15.2085 21.2227C15.2085 22.2226 14.3979 23.0332 13.398 23.0332Z" fill="#282828"/>
<path d="M51.6984 13.517H60.1422V16.1783H51.6984V13.517ZM51.9645 22.6625H48.8192V5.72632H61.1826V8.36352H51.9645V22.6625ZM71.4687 22.6625V20.0495L71.2993 19.493V14.9202C71.2993 14.0331 71.0332 13.3476 70.5009 12.8637C69.9686 12.3637 69.1621 12.1137 68.0814 12.1137C67.3556 12.1137 66.6378 12.2266 65.9281 12.4524C65.2345 12.6782 64.6458 12.9927 64.1619 13.396L62.9764 11.1943C63.67 10.662 64.4926 10.2668 65.4442 10.0087C66.412 9.73454 67.4121 9.59744 68.4444 9.59744C70.3154 9.59744 71.759 10.0491 72.7752 10.9523C73.8075 11.8395 74.3236 13.2186 74.3236 15.0896V22.6625H71.4687ZM67.404 22.8318C66.4362 22.8318 65.5894 22.6705 64.8636 22.3479C64.1377 22.0092 63.5732 21.5495 63.17 20.9689C62.7828 20.3721 62.5893 19.7027 62.5893 18.9607C62.5893 18.2349 62.7586 17.5816 63.0974 17.001C63.4522 16.4203 64.0248 15.9606 64.8152 15.6219C65.6055 15.2832 66.654 15.1138 67.9605 15.1138H71.7106V17.1219H68.1782C67.1459 17.1219 66.4523 17.2913 66.0975 17.63C65.7426 17.9526 65.5652 18.3559 65.5652 18.8397C65.5652 19.3882 65.783 19.8237 66.2185 20.1462C66.654 20.4688 67.2588 20.6301 68.033 20.6301C68.775 20.6301 69.4363 20.4608 70.017 20.1221C70.6138 19.7833 71.0412 19.2833 71.2993 18.622L71.8074 20.4366C71.5171 21.1947 70.9928 21.7834 70.2347 22.2028C69.4928 22.6222 68.5492 22.8318 67.404 22.8318ZM78.2049 22.6625V9.74261H81.0841V13.2992L80.7454 12.2588C81.1325 11.3878 81.7373 10.7265 82.56 10.2749C83.3987 9.82326 84.4391 9.59744 85.6811 9.59744V12.4766C85.552 12.4443 85.431 12.4282 85.3181 12.4282C85.2052 12.4121 85.0923 12.404 84.9794 12.404C83.8342 12.404 82.9229 12.7427 82.2454 13.4202C81.568 14.0815 81.2293 15.0735 81.2293 16.3961V22.6625H78.2049ZM104.554 9.59744C105.586 9.59744 106.497 9.79906 107.288 10.2023C108.094 10.6055 108.723 11.2265 109.175 12.0653C109.626 12.8879 109.852 13.9525 109.852 15.259V22.6625H106.828V15.6461C106.828 14.5009 106.578 13.646 106.078 13.0814C105.578 12.5169 104.86 12.2346 103.925 12.2346C103.263 12.2346 102.675 12.3798 102.158 12.6701C101.658 12.9605 101.263 13.3879 100.973 13.9525C100.699 14.517 100.562 15.2348 100.562 16.1058V22.6625H97.5373V15.6461C97.5373 14.5009 97.2873 13.646 96.7873 13.0814C96.2873 12.5169 95.5695 12.2346 94.634 12.2346C93.9726 12.2346 93.3839 12.3798 92.8678 12.6701C92.3677 12.9605 91.9726 13.3879 91.6822 13.9525C91.408 14.517 91.2709 15.2348 91.2709 16.1058V22.6625H88.2466V9.74261H91.1258V13.1782L90.6177 12.1621C91.0532 11.3233 91.6822 10.6862 92.5048 10.2507C93.3436 9.81519 94.2952 9.59744 95.3598 9.59744C96.5695 9.59744 97.618 9.89584 98.5051 10.4926C99.4083 11.0894 100.005 11.9927 100.295 13.2024L99.1099 12.7911C99.5293 11.8233 100.223 11.0491 101.191 10.4684C102.158 9.88778 103.279 9.59744 104.554 9.59744ZM116.886 13.517H125.33V16.1783H116.886V13.517ZM117.153 22.6625H114.007V5.72632H126.371V8.36352H117.153V22.6625ZM134.236 22.8318C133.139 22.8318 132.171 22.6302 131.332 22.227C130.494 21.8076 129.84 21.1785 129.373 20.3398C128.905 19.4849 128.671 18.4123 128.671 17.1219V9.74261H131.695V16.7106C131.695 17.872 131.953 18.743 132.469 19.3236C133.002 19.8882 133.752 20.1704 134.72 20.1704C135.429 20.1704 136.042 20.0253 136.558 19.7349C137.091 19.4446 137.502 19.0091 137.792 18.4284C138.099 17.8478 138.252 17.13 138.252 16.2751V9.74261H141.276V22.6625H138.397V19.1785L138.905 20.243C138.47 21.0818 137.833 21.727 136.994 22.1786C136.155 22.6141 135.236 22.8318 134.236 22.8318ZM149.228 22.8318C148.147 22.8318 147.107 22.6947 146.107 22.4205C145.123 22.1302 144.341 21.7834 143.76 21.3802L144.921 19.0817C145.502 19.4527 146.196 19.7591 147.002 20.0011C147.809 20.243 148.615 20.364 149.422 20.364C150.373 20.364 151.059 20.235 151.478 19.9769C151.914 19.7188 152.131 19.372 152.131 18.9365C152.131 18.5817 151.986 18.3155 151.696 18.1381C151.406 17.9445 151.027 17.7994 150.559 17.7026C150.091 17.6058 149.567 17.5171 148.986 17.4365C148.422 17.3558 147.849 17.251 147.268 17.1219C146.704 16.9768 146.188 16.7751 145.72 16.5171C145.252 16.2429 144.873 15.8799 144.583 15.4283C144.292 14.9767 144.147 14.3799 144.147 13.6379C144.147 12.8153 144.381 12.1056 144.849 11.5088C145.317 10.8959 145.97 10.4281 146.809 10.1055C147.664 9.7668 148.672 9.59744 149.833 9.59744C150.704 9.59744 151.583 9.69422 152.47 9.88778C153.357 10.0813 154.091 10.3555 154.672 10.7104L153.511 13.0089C152.898 12.6379 152.277 12.3879 151.648 12.2588C151.035 12.1137 150.422 12.0411 149.809 12.0411C148.889 12.0411 148.204 12.1782 147.752 12.4524C147.317 12.7266 147.099 13.0734 147.099 13.4928C147.099 13.8799 147.244 14.1702 147.534 14.3638C147.825 14.5573 148.204 14.7105 148.672 14.8235C149.139 14.9364 149.656 15.0331 150.22 15.1138C150.801 15.1783 151.373 15.2832 151.938 15.4283C152.502 15.5735 153.019 15.7751 153.486 16.0332C153.97 16.2751 154.357 16.6219 154.648 17.0735C154.938 17.5252 155.083 18.1139 155.083 18.8397C155.083 19.6462 154.841 20.3479 154.357 20.9447C153.89 21.5415 153.22 22.0092 152.349 22.3479C151.478 22.6705 150.438 22.8318 149.228 22.8318ZM163.761 22.8318C162.325 22.8318 161.067 22.5496 159.986 21.985C158.922 21.4044 158.091 20.614 157.494 19.614C156.913 18.6139 156.623 17.4768 156.623 16.2025C156.623 14.9122 156.905 13.775 157.47 12.7911C158.051 11.7911 158.841 11.0088 159.841 10.4442C160.857 9.87971 162.01 9.59744 163.301 9.59744C164.559 9.59744 165.68 9.87165 166.664 10.4201C167.648 10.9685 168.422 11.7427 168.987 12.7427C169.551 13.7428 169.833 14.9202 169.833 16.2751C169.833 16.4042 169.825 16.5493 169.809 16.7106C169.809 16.8719 169.801 17.0252 169.785 17.1703H159.018V15.1622H168.188L167.003 15.7912C167.019 15.0493 166.865 14.396 166.543 13.8315C166.22 13.2669 165.777 12.8234 165.212 12.5008C164.664 12.1782 164.027 12.0169 163.301 12.0169C162.559 12.0169 161.906 12.1782 161.341 12.5008C160.793 12.8234 160.357 13.275 160.035 13.8557C159.728 14.4202 159.575 15.0896 159.575 15.8638V16.3477C159.575 17.1219 159.752 17.8074 160.107 18.4042C160.462 19.001 160.962 19.4607 161.607 19.7833C162.252 20.1059 162.994 20.2672 163.833 20.2672C164.559 20.2672 165.212 20.1543 165.793 19.9285C166.374 19.7027 166.89 19.3478 167.341 18.8639L168.962 20.7269C168.382 21.4044 167.648 21.9286 166.761 22.2996C165.89 22.6544 164.89 22.8318 163.761 22.8318Z" fill="#CFFF91"/>
</svg>
