<svg width="32" height="31" viewBox="0 0 32 31" fill="none" xmlns="http://www.w3.org/2000/svg">
<g id="carbon:user-access" clip-path="url(#clip0_71_3145)">
<path id="Vector" d="M16 28.4805H14V23.793C13.9992 23.0473 13.6829 22.3324 13.1204 21.8051C12.558 21.2778 11.7954 20.9813 11 20.9805H7C6.20459 20.9813 5.44199 21.2778 4.87956 21.8051C4.31712 22.3324 4.00079 23.0473 4 23.793V28.4805H2V23.793C2.00159 22.5503 2.52888 21.3588 3.46622 20.4801C4.40356 19.6013 5.67441 19.107 7 19.1055H11C12.3256 19.107 13.5964 19.6013 14.5338 20.4801C15.4711 21.3588 15.9984 22.5503 16 23.793V28.4805ZM9 9.73051C9.59334 9.73051 10.1734 9.89546 10.6667 10.2045C11.1601 10.5135 11.5446 10.9528 11.7716 11.4667C11.9987 11.9806 12.0581 12.5461 11.9424 13.0917C11.8266 13.6373 11.5409 14.1384 11.1213 14.5318C10.7018 14.9251 10.1672 15.193 9.58527 15.3015C9.00333 15.41 8.40013 15.3543 7.85195 15.1414C7.30377 14.9286 6.83524 14.5681 6.50559 14.1056C6.17595 13.643 6 13.0993 6 12.543C6 11.7971 6.31607 11.0817 6.87868 10.5543C7.44129 10.0268 8.20435 9.73051 9 9.73051ZM9 7.85551C8.01109 7.85551 7.0444 8.13043 6.22215 8.6455C5.3999 9.16057 4.75904 9.89265 4.3806 10.7492C4.00216 11.6057 3.90315 12.5482 4.09607 13.4575C4.289 14.3668 4.7652 15.202 5.46447 15.8576C6.16373 16.5131 7.05464 16.9596 8.02455 17.1404C8.99445 17.3213 9.99979 17.2285 10.9134 16.8737C11.827 16.5189 12.6079 15.9181 13.1573 15.1472C13.7068 14.3764 14 13.4701 14 12.543C14 11.9274 13.8707 11.3179 13.6194 10.7492C13.3681 10.1805 12.9998 9.66372 12.5355 9.22845C12.0712 8.79317 11.52 8.44789 10.9134 8.21233C10.3068 7.97676 9.65661 7.85551 9 7.85551ZM30 11.6055C29.8268 11.6077 29.6547 11.631 29.488 11.6749L28.433 10.6858C28.8037 10.1156 28.9999 9.46077 28.9999 8.79301C28.9999 8.12525 28.8037 7.47038 28.433 6.9002L29.488 5.91114C29.921 6.02414 30.3817 5.99951 30.7982 5.8411C31.2146 5.6827 31.5634 5.39943 31.79 5.03556C32.0166 4.67168 32.1083 4.24769 32.0507 3.82981C31.9931 3.41193 31.7896 3.02369 31.4717 2.72575C31.1539 2.42781 30.7398 2.23694 30.2941 2.18295C29.8483 2.12897 29.3961 2.21491 29.008 2.42736C28.6198 2.63981 28.3177 2.96679 28.1487 3.35723C27.9797 3.74768 27.9535 4.17959 28.074 4.58551L27.02 5.57457C26.4118 5.22701 25.7133 5.04314 25.001 5.04314C24.2887 5.04314 23.5902 5.22701 22.982 5.57457L21.927 4.58551C22.0475 4.17959 22.0213 3.74768 21.8523 3.35723C21.6833 2.96679 21.3812 2.63981 20.9931 2.42736C20.6049 2.21491 20.1527 2.12897 19.7069 2.18295C19.2612 2.23694 18.8471 2.42781 18.5293 2.72575C18.2115 3.02369 18.0079 3.41193 17.9503 3.82981C17.8927 4.24769 17.9844 4.67168 18.211 5.03556C18.4376 5.39943 18.7864 5.6827 19.2028 5.8411C19.6193 5.99951 20.08 6.02414 20.513 5.91114L21.568 6.9002C21.1973 7.47038 21.0011 8.12525 21.0011 8.79301C21.0011 9.46077 21.1973 10.1156 21.568 10.6858L20.513 11.6749C20.08 11.5619 19.6193 11.5865 19.2028 11.7449C18.7864 11.9033 18.4376 12.1866 18.211 12.5505C17.9844 12.9143 17.8927 13.3383 17.9503 13.7562C18.0079 14.1741 18.2115 14.5623 18.5293 14.8603C18.8471 15.1582 19.2612 15.3491 19.7069 15.4031C20.1527 15.4571 20.6049 15.3711 20.9931 15.1587C21.3812 14.9462 21.6833 14.6192 21.8523 14.2288C22.0213 13.8383 22.0475 13.4064 21.927 13.0005L22.982 12.0114C23.5902 12.359 24.2887 12.5429 25.001 12.5429C25.7133 12.5429 26.4118 12.359 27.02 12.0114L28.075 13.0005C27.9689 13.3785 27.9917 13.7781 28.1402 14.1433C28.2887 14.5085 28.5555 14.821 28.903 15.0368C29.2506 15.2526 29.6615 15.361 30.0781 15.3468C30.4947 15.3325 30.8961 15.1963 31.226 14.9573C31.5558 14.7182 31.7976 14.3884 31.9172 14.014C32.0369 13.6396 32.0286 13.2395 31.8934 12.8698C31.7581 12.5001 31.5028 12.1793 31.1632 11.9526C30.8237 11.7259 30.4169 11.6045 30 11.6055ZM23 8.79301C23 8.42217 23.1173 8.05966 23.3371 7.75132C23.5568 7.44297 23.8692 7.20265 24.2346 7.06074C24.6001 6.91882 25.0022 6.88169 25.3902 6.95404C25.7781 7.02639 26.1345 7.20496 26.4142 7.46719C26.6939 7.72941 26.8844 8.0635 26.9616 8.42722C27.0387 8.79093 26.9991 9.16793 26.8478 9.51054C26.6964 9.85315 26.44 10.146 26.1111 10.352C25.7822 10.558 25.3956 10.668 25 10.668C24.4697 10.6675 23.9613 10.4698 23.5864 10.1183C23.2114 9.76677 23.0005 9.29014 23 8.79301Z" fill="#83CC20"/>
</g>
<defs>
<clipPath id="clip0_71_3145">
<rect width="32" height="30" fill="white" transform="translate(0 0.355469)"/>
</clipPath>
</defs>
</svg>
