<svg width="24" height="25" viewBox="0 0 24 25" fill="none" xmlns="http://www.w3.org/2000/svg">
<g id="mdi:support">
<path id="Vector" d="M18.72 15.1154C19.07 14.2654 19.26 13.3554 19.26 12.3554C19.26 11.6354 19.15 10.9454 18.96 10.3054C18.31 10.4554 17.63 10.5354 16.92 10.5354C15.466 10.537 14.0329 10.1889 12.7415 9.52064C11.4502 8.85234 10.3384 7.88337 9.5 6.69542C8.6031 8.86559 6.91112 10.6112 4.77 11.5754C4.73 11.8254 4.73 12.0954 4.73 12.3554C4.73 13.3101 4.91804 14.2555 5.2834 15.1375C5.64875 16.0196 6.18425 16.821 6.85933 17.4961C8.22272 18.8595 10.0719 19.6254 12 19.6254C13.05 19.6254 14.06 19.3954 14.97 18.9854C15.54 20.0754 15.8 20.6154 15.78 20.6154C14.14 21.1654 12.87 21.4354 12 21.4354C9.58 21.4354 7.27 20.4854 5.57 18.7754C4.536 17.7446 3.76737 16.4784 3.33 15.0854H2V10.5354H3.09C3.42024 8.92793 4.17949 7.43983 5.28719 6.22901C6.39489 5.01819 7.80971 4.12982 9.38153 3.65817C10.9534 3.18652 12.6235 3.14919 14.2149 3.55012C15.8062 3.95106 17.2593 4.77531 18.42 5.93542C19.6802 7.19067 20.5398 8.79152 20.89 10.5354H22V15.0854H21.94L18.38 18.3554L13.08 17.7554V16.0854H17.91L18.72 15.1154ZM9.27 12.1254C9.57 12.1254 9.86 12.2454 10.07 12.4654C10.281 12.6782 10.3995 12.9657 10.3995 13.2654C10.3995 13.5651 10.281 13.8526 10.07 14.0654C9.86 14.2754 9.57 14.3954 9.27 14.3954C8.64 14.3954 8.13 13.8954 8.13 13.2654C8.13 12.6354 8.64 12.1254 9.27 12.1254ZM14.72 12.1254C15.35 12.1254 15.85 12.6354 15.85 13.2654C15.85 13.8954 15.35 14.3954 14.72 14.3954C14.09 14.3954 13.58 13.8954 13.58 13.2654C13.58 12.9631 13.7001 12.6731 13.9139 12.4593C14.1277 12.2455 14.4177 12.1254 14.72 12.1254Z" fill="#83CC20"/>
</g>
</svg>
