<svg width="20" height="20" viewBox="0 0 20 20" fill="none" xmlns="http://www.w3.org/2000/svg">
<g id="fluent:task-list-square-add-20-regular" clip-path="url(#clip0_296_1491)">
<path id="Vector" d="M3.75 0C2.75544 0 1.80161 0.395088 1.09835 1.09835C0.395088 1.80161 0 2.75544 0 3.75V13.75C0 14.7446 0.395088 15.6984 1.09835 16.4017C1.80161 17.1049 2.75544 17.5 3.75 17.5H8.25C8.04559 17.1005 7.88104 16.6818 7.75875 16.25H3.75C3.08696 16.25 2.45107 15.9866 1.98223 15.5178C1.51339 15.0489 1.25 14.413 1.25 13.75V3.75C1.25 3.08696 1.51339 2.45107 1.98223 1.98223C2.45107 1.51339 3.08696 1.25 3.75 1.25H13.75C14.413 1.25 15.0489 1.51339 15.5178 1.98223C15.9866 2.45107 16.25 3.08696 16.25 3.75V7.75875C16.6863 7.8825 17.1038 8.04625 17.5 8.25V3.75C17.5 2.75544 17.1049 1.80161 16.4017 1.09835C15.6984 0.395088 14.7446 0 13.75 0H3.75ZM7.9425 5.13C8.05986 5.01264 8.12579 4.85347 8.12579 4.6875C8.12579 4.52153 8.05986 4.36236 7.9425 4.245C7.82514 4.12764 7.66597 4.06171 7.5 4.06171C7.33403 4.06171 7.17486 4.12764 7.0575 4.245L5.2925 6.01L4.79625 5.5575C4.67295 5.45211 4.5135 5.39879 4.35161 5.40879C4.18971 5.4188 4.03805 5.49135 3.92867 5.61112C3.81928 5.73089 3.76075 5.8885 3.76543 6.05064C3.77011 6.21277 3.83764 6.36674 3.95375 6.48L4.89125 7.33625C5.01004 7.4444 5.1659 7.50266 5.3265 7.49893C5.4871 7.49521 5.6401 7.42979 5.75375 7.31625L7.94125 5.12875L7.9425 5.13ZM7.9425 10.495C8.0007 10.5531 8.04688 10.622 8.07839 10.698C8.1099 10.7739 8.12612 10.8553 8.12612 10.9375C8.12612 11.0197 8.1099 11.1011 8.07839 11.177C8.04688 11.253 8.0007 11.3219 7.9425 11.38L5.755 13.5675C5.64113 13.6812 5.48778 13.7467 5.32689 13.7501C5.16599 13.7536 5.00994 13.6949 4.89125 13.5863L3.95375 12.73C3.83764 12.6167 3.77011 12.4628 3.76543 12.3006C3.76075 12.1385 3.81928 11.9809 3.92867 11.8611C4.03805 11.7414 4.18971 11.6688 4.35161 11.6588C4.5135 11.6488 4.67295 11.7021 4.79625 11.8075L5.2925 12.2612L7.0575 10.495C7.11556 10.4368 7.18453 10.3906 7.26046 10.3591C7.33639 10.3276 7.41779 10.3114 7.5 10.3114C7.58221 10.3114 7.66361 10.3276 7.73954 10.3591C7.81547 10.3906 7.88444 10.4368 7.9425 10.495ZM9.375 5.625C9.375 5.45924 9.44085 5.30027 9.55806 5.18306C9.67527 5.06585 9.83424 5 10 5H13.125C13.2908 5 13.4497 5.06585 13.5669 5.18306C13.6842 5.30027 13.75 5.45924 13.75 5.625C13.75 5.79076 13.6842 5.94973 13.5669 6.06694C13.4497 6.18415 13.2908 6.25 13.125 6.25H10C9.83424 6.25 9.67527 6.18415 9.55806 6.06694C9.44085 5.94973 9.375 5.79076 9.375 5.625ZM20 14.375C20 15.8668 19.4074 17.2976 18.3525 18.3525C17.2976 19.4074 15.8668 20 14.375 20C12.8832 20 11.4524 19.4074 10.3975 18.3525C9.34263 17.2976 8.75 15.8668 8.75 14.375C8.75 12.8832 9.34263 11.4524 10.3975 10.3975C11.4524 9.34263 12.8832 8.75 14.375 8.75C15.8668 8.75 17.2976 9.34263 18.3525 10.3975C19.4074 11.4524 20 12.8832 20 14.375ZM15 11.875C15 11.7092 14.9342 11.5503 14.8169 11.4331C14.6997 11.3158 14.5408 11.25 14.375 11.25C14.2092 11.25 14.0503 11.3158 13.9331 11.4331C13.8158 11.5503 13.75 11.7092 13.75 11.875V13.75H11.875C11.7092 13.75 11.5503 13.8158 11.4331 13.9331C11.3158 14.0503 11.25 14.2092 11.25 14.375C11.25 14.5408 11.3158 14.6997 11.4331 14.8169C11.5503 14.9342 11.7092 15 11.875 15H13.75V16.875C13.75 17.0408 13.8158 17.1997 13.9331 17.3169C14.0503 17.4342 14.2092 17.5 14.375 17.5C14.5408 17.5 14.6997 17.4342 14.8169 17.3169C14.9342 17.1997 15 17.0408 15 16.875V15H16.875C17.0408 15 17.1997 14.9342 17.3169 14.8169C17.4342 14.6997 17.5 14.5408 17.5 14.375C17.5 14.2092 17.4342 14.0503 17.3169 13.9331C17.1997 13.8158 17.0408 13.75 16.875 13.75H15V11.875Z" fill="#828282"/>
</g>
<defs>
<clipPath id="clip0_296_1491">
<rect width="20" height="20" fill="white"/>
</clipPath>
</defs>
</svg>
