<svg width="22" height="22" viewBox="0 0 22 22" fill="none" xmlns="http://www.w3.org/2000/svg">
<g id="fluent:weather-fog-20-regular" clip-path="url(#clip0_296_1486)">
<path id="Vector" d="M6 21.788H16C16.1785 21.7876 16.3506 21.8592 16.4825 21.9887C16.6145 22.1182 16.6966 22.2962 16.7127 22.4877C16.7288 22.6791 16.6778 22.8701 16.5697 23.0231C16.4616 23.176 16.3042 23.2799 16.1286 23.3141L16 23.3264H6C5.82151 23.3268 5.64936 23.2551 5.51745 23.1256C5.38555 22.9961 5.30345 22.8181 5.28732 22.6267C5.27119 22.4353 5.32221 22.2442 5.43031 22.0913C5.53842 21.9383 5.69579 21.8345 5.87143 21.8003L6 21.788ZM3.14857 18.711H18.8514C19.0301 18.7103 19.2024 18.7816 19.3346 18.911C19.4668 19.0404 19.5492 19.2184 19.5655 19.41C19.5818 19.6015 19.5309 19.7927 19.4228 19.9459C19.3147 20.099 19.1572 20.2029 18.9814 20.2372L18.8529 20.2495H3.14714C3.05297 20.2499 2.95964 20.2303 2.87249 20.1919C2.78533 20.1534 2.70607 20.0969 2.63921 20.0255C2.57235 19.954 2.51921 19.8691 2.48282 19.7756C2.44644 19.682 2.42752 19.5817 2.42714 19.4803C2.4276 19.2998 2.48695 19.1253 2.5948 18.9872C2.70265 18.8491 2.85215 18.7563 3.01714 18.7249L3.14571 18.711H3.14857ZM11 3.32642C14.5214 3.32642 16.5186 5.74795 16.8086 8.67103H16.8971C19.1629 8.67103 21 10.5741 21 12.9218C21 15.2695 19.1629 17.1726 16.8971 17.1726H5.10286C2.83714 17.1726 1 15.2695 1 12.9218C1 10.6618 2.70286 8.81411 4.85286 8.67872L5.19143 8.67103C5.48429 5.72949 7.47857 3.32642 11 3.32642ZM11 4.86488C8.64286 4.86488 6.59 6.81872 6.59 9.51872C6.59 9.94641 6.22714 10.2833 5.81143 10.2833H5.02571C3.59143 10.2833 2.42857 11.4803 2.42857 12.9587C2.42857 14.4356 3.59143 15.6356 5.02571 15.6356H16.9743C18.4086 15.6356 19.5714 14.4356 19.5714 12.9587C19.5714 11.4818 18.4086 10.2818 16.9743 10.2818H16.1886C15.7743 10.2818 15.41 9.94641 15.41 9.51872C15.41 6.78488 13.3557 4.86488 11 4.86488Z" fill="#545454"/>
</g>
<defs>
<clipPath id="clip0_296_1486">
<rect width="22" height="22" fill="white"/>
</clipPath>
</defs>
</svg>
