<svg width="20" height="20" viewBox="0 0 20 20" fill="none" xmlns="http://www.w3.org/2000/svg">
<g id="mingcute:schedule-line" clip-path="url(#clip0_296_1496)">
<g id="Group">
<path id="Vector" d="M13.3333 2.5C13.5543 2.5 13.7663 2.5878 13.9226 2.74408C14.0789 2.90036 14.1667 3.11232 14.1667 3.33333V4.16667H15.8333C16.2754 4.16667 16.6993 4.34226 17.0118 4.65482C17.3244 4.96738 17.5 5.39131 17.5 5.83333V15.8333C17.5 16.2754 17.3244 16.6993 17.0118 17.0118C16.6993 17.3244 16.2754 17.5 15.8333 17.5H4.16667C3.72464 17.5 3.30072 17.3244 2.98816 17.0118C2.67559 16.6993 2.5 16.2754 2.5 15.8333V5.83333C2.5 5.39131 2.67559 4.96738 2.98816 4.65482C3.30072 4.34226 3.72464 4.16667 4.16667 4.16667H5.83333V3.33333C5.83333 3.11232 5.92113 2.90036 6.07741 2.74408C6.23369 2.5878 6.44565 2.5 6.66667 2.5C6.88768 2.5 7.09964 2.5878 7.25592 2.74408C7.4122 2.90036 7.5 3.11232 7.5 3.33333V4.16667H12.5V3.33333C12.5 3.11232 12.5878 2.90036 12.7441 2.74408C12.9004 2.5878 13.1123 2.5 13.3333 2.5ZM15.8333 5.83333H4.16667V15.8333H15.8333V5.83333ZM12.3533 7.81583C12.5105 7.66403 12.721 7.58004 12.9395 7.58194C13.158 7.58384 13.367 7.67148 13.5215 7.82598C13.676 7.98049 13.7637 8.1895 13.7656 8.408C13.7675 8.6265 13.6835 8.837 13.5317 8.99417L9.41333 13.1133C9.33517 13.1916 9.24235 13.2536 9.14018 13.296C9.03802 13.3383 8.92851 13.3601 8.81792 13.3601C8.70732 13.3601 8.59781 13.3383 8.49565 13.296C8.39348 13.2536 8.30067 13.1916 8.2225 13.1133L6.46083 11.35C6.30903 11.1928 6.22504 10.9823 6.22694 10.7638C6.22884 10.5453 6.31648 10.3363 6.47098 10.1818C6.62549 10.0273 6.8345 9.93967 7.053 9.93777C7.2715 9.93587 7.482 10.0199 7.63917 10.1717L8.81833 11.35L12.3533 7.81583Z" fill="#828282"/>
</g>
</g>
<defs>
<clipPath id="clip0_296_1496">
<rect width="20" height="20" fill="white"/>
</clipPath>
</defs>
</svg>
