<svg width="21" height="29" viewBox="0 0 21 29" fill="none" xmlns="http://www.w3.org/2000/svg">
<g id="Vector">
<path d="M1 4C1 1.79086 2.79086 0 5 0H17C19.2091 0 21 1.79086 21 4H1Z" fill="#D9D9D9"/>
<path d="M6 10.5C6 10.2239 6.22386 10 6.5 10H20.5C20.7761 10 21 10.2239 21 10.5C21 10.7761 20.7761 11 20.5 11H6.5C6.22386 11 6 10.7761 6 10.5Z" fill="#D9D9D9"/>
<path d="M6 14.5C6 14.2239 6.22386 14 6.5 14H13.5C13.7761 14 14 14.2239 14 14.5C14 14.7761 13.7761 15 13.5 15H6.5C6.22386 15 6 14.7761 6 14.5Z" fill="#D9D9D9"/>
<path d="M6 16.5C6 16.2239 6.22386 16 6.5 16H11.5C11.7761 16 12 16.2239 12 16.5C12 16.7761 11.7761 17 11.5 17H6.5C6.22386 17 6 16.7761 6 16.5Z" fill="#D9D9D9"/>
<path d="M6 18.5C6 18.2239 6.22386 18 6.5 18H9.5C9.77614 18 10 18.2239 10 18.5C10 18.7761 9.77614 19 9.5 19H6.5C6.22386 19 6 18.7761 6 18.5Z" fill="#D9D9D9"/>
<path d="M6 20.5C6 20.2239 6.22386 20 6.5 20H7.5C7.77614 20 8 20.2239 8 20.5C8 20.7761 7.77614 21 7.5 21H6.5C6.22386 21 6 20.7761 6 20.5Z" fill="#D9D9D9"/>
<path d="M6 12.5C6 12.2239 6.22386 12 6.5 12H17.5C17.7761 12 18 12.2239 18 12.5C18 12.7761 17.7761 13 17.5 13H6.5C6.22386 13 6 12.7761 6 12.5Z" fill="#D9D9D9"/>
<path d="M1.14286 29C0.511675 29 0 28.4883 0 27.8571V7C0 5.89543 0.895431 5 2 5C3.10457 5 4 5.89543 4 7V26.1429C4 27.7208 2.72081 29 1.14286 29Z" fill="#D9D9D9"/>
</g>
</svg>
