<svg width="25" height="24" viewBox="0 0 25 24" fill="none" xmlns="http://www.w3.org/2000/svg">
<g id="material-symbols-light:contact-support-outline">
<path id="Vector" d="M13.5 20.27L13.442 18H12C9.91533 18 8.14433 17.271 6.687 15.813C5.229 14.3557 4.5 12.5847 4.5 10.5C4.5 8.41533 5.229 6.64433 6.687 5.187C8.14433 3.729 9.91533 3 12 3C13.042 3 14.018 3.19533 14.928 3.586C15.8373 3.976 16.6317 4.51033 17.311 5.189C17.9897 5.86833 18.524 6.66267 18.914 7.572C19.3047 8.482 19.5 9.458 19.5 10.5C19.5 11.5193 19.3503 12.4983 19.051 13.437C18.751 14.375 18.337 15.262 17.809 16.098C17.2797 16.934 16.6463 17.704 15.909 18.408C15.1717 19.112 14.3687 19.7323 13.5 20.269V20.27ZM14.5 18.35C15.6833 17.35 16.646 16.179 17.388 14.837C18.13 13.495 18.5007 12.0493 18.5 10.5C18.5 8.68333 17.8707 7.146 16.612 5.888C15.3533 4.63 13.816 4.00067 12 4C10.1833 4 8.646 4.62933 7.388 5.888C6.13 7.14667 5.50067 8.684 5.5 10.5C5.5 12.3167 6.12933 13.854 7.388 15.112C8.64667 16.37 10.184 16.9993 12 17H14.5V18.35ZM12.033 15.571C12.2397 15.571 12.414 15.5 12.556 15.358C12.698 15.2153 12.769 15.041 12.769 14.835C12.769 14.6283 12.698 14.454 12.556 14.312C12.4133 14.1693 12.239 14.098 12.033 14.098C11.8263 14.098 11.652 14.1693 11.51 14.312C11.3673 14.454 11.296 14.6283 11.296 14.835C11.296 15.0417 11.3673 15.216 11.51 15.358C11.652 15.5 11.8263 15.571 12.033 15.571ZM11.596 12.646H12.481C12.5063 12.236 12.585 11.9117 12.717 11.673C12.849 11.4343 13.1623 11.0677 13.657 10.573C13.9443 10.2863 14.172 9.99333 14.34 9.694C14.508 9.39533 14.592 9.05233 14.592 8.665C14.592 7.94367 14.343 7.377 13.845 6.965C13.347 6.55233 12.7447 6.346 12.038 6.346C11.4207 6.346 10.8973 6.515 10.468 6.853C10.038 7.191 9.723 7.594 9.523 8.062L10.346 8.381C10.4807 8.085 10.6773 7.81533 10.936 7.572C11.1953 7.32933 11.5627 7.208 12.038 7.208C12.604 7.208 13.0217 7.36167 13.291 7.669C13.561 7.977 13.696 8.313 13.696 8.677C13.696 9.01167 13.6093 9.29467 13.436 9.526C13.2627 9.75733 13.0403 10.009 12.769 10.281C12.289 10.7037 11.9733 11.0837 11.822 11.421C11.6713 11.757 11.596 12.1653 11.596 12.646Z" fill="white" fill-opacity="0.56"/>
</g>
</svg>
